<svg xmlns="http://www.w3.org/2000/svg" viewBox="0 0 640 560" width="640" height="560" role="img" aria-label="Coco Ma monogram: an interlocking C and M in gold">
  <defs>
    <linearGradient id="cmGold" x1="0.06" y1="0" x2="0.94" y2="1">
      <stop offset="0%"   stop-color="#8A6522"/>
      <stop offset="14%"  stop-color="#D9B972"/>
      <stop offset="27%"  stop-color="#FAF0D2"/>
      <stop offset="39%"  stop-color="#C79B4C"/>
      <stop offset="53%"  stop-color="#F3DCA6"/>
      <stop offset="68%"  stop-color="#A87C31"/>
      <stop offset="82%"  stop-color="#E9CE90"/>
      <stop offset="100%" stop-color="#7E5A1E"/>
    </linearGradient>
    <linearGradient id="cmGoldAlt" x1="0.9" y1="0" x2="0.1" y2="1">
      <stop offset="0%"   stop-color="#B98F3E"/>
      <stop offset="18%"  stop-color="#FBF2D8"/>
      <stop offset="34%"  stop-color="#CDA45A"/>
      <stop offset="50%"  stop-color="#E7C989"/>
      <stop offset="72%"  stop-color="#966C28"/>
      <stop offset="100%" stop-color="#EAD199"/>
    </linearGradient>
    <filter id="cmShadow" x="-25%" y="-25%" width="150%" height="150%">
      <feDropShadow dx="0" dy="10" stdDeviation="14" flood-color="#000000" flood-opacity="0.55"/>
    </filter>
    <filter id="cmSheen" x="-25%" y="-25%" width="150%" height="150%">
      <feGaussianBlur stdDeviation="10"/>
    </filter>
  </defs>

  <g filter="url(#cmShadow)">
    <path d="M 332.62,456.09 L 329.35,460.47 L 325.51,463.87 L 321.48,466.98 L 317.32,469.87 L 313.03,472.57 L 308.65,475.10 L 304.19,477.46 L 299.64,479.67 L 295.02,481.72 L 290.33,483.61 L 285.57,485.34 L 280.77,486.92 L 275.91,488.34 L 271.00,489.61 L 266.05,490.72 L 261.06,491.68 L 256.04,492.48 L 250.99,493.12 L 245.91,493.60 L 240.82,493.93 L 235.70,494.10 L 230.58,494.11 L 225.44,493.96 L 220.30,493.65 L 215.16,493.19 L 210.03,492.57 L 204.90,491.79 L 199.79,490.85 L 194.69,489.76 L 189.61,488.51 L 184.55,487.10 L 179.53,485.55 L 174.53,483.83 L 169.58,481.97 L 164.66,479.95 L 159.78,477.79 L 154.96,475.47 L 150.18,473.01 L 145.46,470.41 L 140.80,467.66 L 136.20,464.77 L 131.66,461.74 L 127.20,458.57 L 122.81,455.27 L 118.50,451.83 L 114.26,448.26 L 110.11,444.57 L 106.05,440.75 L 102.07,436.80 L 98.19,432.74 L 94.40,428.55 L 90.72,424.26 L 87.13,419.85 L 83.65,415.34 L 80.28,410.71 L 77.02,405.99 L 73.87,401.17 L 70.83,396.26 L 67.91,391.25 L 65.12,386.16 L 62.44,380.98 L 59.89,375.72 L 57.47,370.39 L 55.17,364.98 L 53.00,359.51 L 50.97,353.97 L 49.06,348.37 L 47.30,342.71 L 45.66,337.00 L 44.17,331.25 L 42.82,325.45 L 41.60,319.61 L 40.53,313.74 L 39.59,307.83 L 38.80,301.90 L 38.15,295.95 L 37.65,289.97 L 37.29,283.99 L 37.07,278.00 L 37.00,272.00 L 37.07,266.00 L 37.29,260.01 L 37.65,254.03 L 38.15,248.05 L 38.80,242.10 L 39.59,236.17 L 40.53,230.26 L 41.60,224.39 L 42.82,218.55 L 44.17,212.75 L 45.66,207.00 L 47.30,201.29 L 49.06,195.63 L 50.97,190.03 L 53.00,184.49 L 55.17,179.02 L 57.47,173.61 L 59.89,168.28 L 62.44,163.02 L 65.12,157.84 L 67.91,152.75 L 70.83,147.74 L 73.87,142.83 L 77.02,138.01 L 80.28,133.29 L 83.65,128.66 L 87.13,124.15 L 90.72,119.74 L 94.40,115.45 L 98.19,111.26 L 102.07,107.20 L 106.05,103.25 L 110.11,99.43 L 114.26,95.74 L 118.50,92.17 L 122.81,88.73 L 127.20,85.43 L 131.66,82.26 L 136.20,79.23 L 140.80,76.34 L 145.46,73.59 L 150.18,70.99 L 154.96,68.53 L 159.78,66.21 L 164.66,64.05 L 169.58,62.03 L 174.53,60.17 L 179.53,58.45 L 184.55,56.90 L 189.61,55.49 L 194.69,54.24 L 199.79,53.15 L 204.90,52.21 L 210.03,51.43 L 215.16,50.81 L 220.30,50.35 L 225.44,50.04 L 230.58,49.89 L 235.70,49.90 L 240.82,50.07 L 245.91,50.40 L 250.99,50.88 L 256.04,51.52 L 261.06,52.32 L 266.05,53.28 L 271.00,54.39 L 275.91,55.66 L 280.77,57.08 L 285.57,58.66 L 290.33,60.39 L 295.02,62.28 L 299.64,64.33 L 304.19,66.54 L 308.65,68.90 L 313.03,71.43 L 317.32,74.13 L 321.48,77.02 L 325.51,80.13 L 329.35,83.53 L 332.62,87.91 L 330.27,92.32 L 325.21,91.84 L 320.61,90.62 L 316.10,89.36 L 311.63,88.14 L 307.18,86.98 L 302.75,85.90 L 298.33,84.91 L 293.91,84.03 L 289.51,83.25 L 285.10,82.57 L 280.71,82.01 L 276.32,81.56 L 271.94,81.22 L 267.57,81.00 L 263.21,80.89 L 258.86,80.89 L 254.53,81.02 L 250.22,81.25 L 245.93,81.60 L 241.65,82.07 L 237.41,82.65 L 233.18,83.35 L 228.98,84.16 L 224.82,85.09 L 220.68,86.12 L 216.57,87.27 L 212.51,88.53 L 208.47,89.90 L 204.48,91.38 L 200.53,92.97 L 196.63,94.66 L 192.76,96.46 L 188.95,98.37 L 185.18,100.37 L 181.47,102.48 L 177.81,104.69 L 174.20,107.00 L 170.65,109.41 L 167.16,111.91 L 163.73,114.51 L 160.36,117.19 L 157.05,119.97 L 153.81,122.84 L 150.64,125.80 L 147.53,128.84 L 144.49,131.96 L 141.53,135.16 L 138.64,138.45 L 135.82,141.81 L 133.08,145.25 L 130.41,148.76 L 127.82,152.34 L 125.31,155.99 L 122.89,159.70 L 120.54,163.49 L 118.28,167.33 L 116.10,171.23 L 114.00,175.19 L 111.99,179.21 L 110.07,183.28 L 108.24,187.40 L 106.50,191.57 L 104.84,195.78 L 103.28,200.04 L 101.80,204.34 L 100.42,208.67 L 99.13,213.04 L 97.94,217.45 L 96.83,221.89 L 95.82,226.35 L 94.91,230.84 L 94.09,235.36 L 93.37,239.89 L 92.74,244.44 L 92.21,249.01 L 91.77,253.60 L 91.44,258.19 L 91.19,262.79 L 91.05,267.39 L 91.00,272.00 L 91.05,276.61 L 91.19,281.21 L 91.44,285.81 L 91.77,290.40 L 92.21,294.99 L 92.74,299.56 L 93.37,304.11 L 94.09,308.64 L 94.91,313.16 L 95.82,317.65 L 96.83,322.11 L 97.94,326.55 L 99.13,330.96 L 100.42,335.33 L 101.80,339.66 L 103.28,343.96 L 104.84,348.22 L 106.50,352.43 L 108.24,356.60 L 110.07,360.72 L 111.99,364.79 L 114.00,368.81 L 116.10,372.77 L 118.28,376.67 L 120.54,380.51 L 122.89,384.30 L 125.31,388.01 L 127.82,391.66 L 130.41,395.24 L 133.08,398.75 L 135.82,402.19 L 138.64,405.55 L 141.53,408.84 L 144.49,412.04 L 147.53,415.16 L 150.64,418.20 L 153.81,421.16 L 157.05,424.03 L 160.36,426.81 L 163.73,429.49 L 167.16,432.09 L 170.65,434.59 L 174.20,437.00 L 177.81,439.31 L 181.47,441.52 L 185.18,443.63 L 188.95,445.63 L 192.76,447.54 L 196.63,449.34 L 200.53,451.03 L 204.48,452.62 L 208.47,454.10 L 212.51,455.47 L 216.57,456.73 L 220.68,457.88 L 224.82,458.91 L 228.98,459.84 L 233.18,460.65 L 237.41,461.35 L 241.65,461.93 L 245.93,462.40 L 250.22,462.75 L 254.53,462.98 L 258.86,463.11 L 263.21,463.11 L 267.57,463.00 L 271.94,462.78 L 276.32,462.44 L 280.71,461.99 L 285.10,461.43 L 289.51,460.75 L 293.91,459.97 L 298.33,459.09 L 302.75,458.10 L 307.18,457.02 L 311.63,455.86 L 316.10,454.64 L 320.61,453.38 L 325.21,452.16 L 330.27,451.68 Z" fill="url(#cmGold)"/>
    <path d="M 207.50,96.00 L 207.50,470.00 L 220.50,470.00 L 220.50,96.00 Z M 197.34,107.19 L 311.34,403.19 L 348.66,388.81 L 234.66,92.81 Z M 344.57,392.02 L 472.57,102.02 L 463.43,97.98 L 335.43,387.98 Z M 456.50,96.00 L 456.50,470.00 L 483.50,470.00 L 483.50,96.00 Z M 184.00,460.00 L 244.00,460.00 L 249.40,471.00 L 178.60,471.00 Z M 436.00,460.00 L 504.00,460.00 L 508.76,471.00 L 431.24,471.00 Z M 188.00,96.00 L 240.00,96.00 L 234.28,105.00 L 193.72,105.00 Z M 446.00,96.00 L 494.00,96.00 L 488.72,105.00 L 451.28,105.00 Z" fill="url(#cmGoldAlt)"/>
  </g>

  <!-- specular pass: a soft bright band raking across both letters -->
  <g clip-path="url(#cmClip)" opacity="0.35">
    <rect x="0" y="0" width="640" height="560" fill="none"/>
  </g>
  <clipPath id="cmClip">
    <path d="M 332.62,456.09 L 329.35,460.47 L 325.51,463.87 L 321.48,466.98 L 317.32,469.87 L 313.03,472.57 L 308.65,475.10 L 304.19,477.46 L 299.64,479.67 L 295.02,481.72 L 290.33,483.61 L 285.57,485.34 L 280.77,486.92 L 275.91,488.34 L 271.00,489.61 L 266.05,490.72 L 261.06,491.68 L 256.04,492.48 L 250.99,493.12 L 245.91,493.60 L 240.82,493.93 L 235.70,494.10 L 230.58,494.11 L 225.44,493.96 L 220.30,493.65 L 215.16,493.19 L 210.03,492.57 L 204.90,491.79 L 199.79,490.85 L 194.69,489.76 L 189.61,488.51 L 184.55,487.10 L 179.53,485.55 L 174.53,483.83 L 169.58,481.97 L 164.66,479.95 L 159.78,477.79 L 154.96,475.47 L 150.18,473.01 L 145.46,470.41 L 140.80,467.66 L 136.20,464.77 L 131.66,461.74 L 127.20,458.57 L 122.81,455.27 L 118.50,451.83 L 114.26,448.26 L 110.11,444.57 L 106.05,440.75 L 102.07,436.80 L 98.19,432.74 L 94.40,428.55 L 90.72,424.26 L 87.13,419.85 L 83.65,415.34 L 80.28,410.71 L 77.02,405.99 L 73.87,401.17 L 70.83,396.26 L 67.91,391.25 L 65.12,386.16 L 62.44,380.98 L 59.89,375.72 L 57.47,370.39 L 55.17,364.98 L 53.00,359.51 L 50.97,353.97 L 49.06,348.37 L 47.30,342.71 L 45.66,337.00 L 44.17,331.25 L 42.82,325.45 L 41.60,319.61 L 40.53,313.74 L 39.59,307.83 L 38.80,301.90 L 38.15,295.95 L 37.65,289.97 L 37.29,283.99 L 37.07,278.00 L 37.00,272.00 L 37.07,266.00 L 37.29,260.01 L 37.65,254.03 L 38.15,248.05 L 38.80,242.10 L 39.59,236.17 L 40.53,230.26 L 41.60,224.39 L 42.82,218.55 L 44.17,212.75 L 45.66,207.00 L 47.30,201.29 L 49.06,195.63 L 50.97,190.03 L 53.00,184.49 L 55.17,179.02 L 57.47,173.61 L 59.89,168.28 L 62.44,163.02 L 65.12,157.84 L 67.91,152.75 L 70.83,147.74 L 73.87,142.83 L 77.02,138.01 L 80.28,133.29 L 83.65,128.66 L 87.13,124.15 L 90.72,119.74 L 94.40,115.45 L 98.19,111.26 L 102.07,107.20 L 106.05,103.25 L 110.11,99.43 L 114.26,95.74 L 118.50,92.17 L 122.81,88.73 L 127.20,85.43 L 131.66,82.26 L 136.20,79.23 L 140.80,76.34 L 145.46,73.59 L 150.18,70.99 L 154.96,68.53 L 159.78,66.21 L 164.66,64.05 L 169.58,62.03 L 174.53,60.17 L 179.53,58.45 L 184.55,56.90 L 189.61,55.49 L 194.69,54.24 L 199.79,53.15 L 204.90,52.21 L 210.03,51.43 L 215.16,50.81 L 220.30,50.35 L 225.44,50.04 L 230.58,49.89 L 235.70,49.90 L 240.82,50.07 L 245.91,50.40 L 250.99,50.88 L 256.04,51.52 L 261.06,52.32 L 266.05,53.28 L 271.00,54.39 L 275.91,55.66 L 280.77,57.08 L 285.57,58.66 L 290.33,60.39 L 295.02,62.28 L 299.64,64.33 L 304.19,66.54 L 308.65,68.90 L 313.03,71.43 L 317.32,74.13 L 321.48,77.02 L 325.51,80.13 L 329.35,83.53 L 332.62,87.91 L 330.27,92.32 L 325.21,91.84 L 320.61,90.62 L 316.10,89.36 L 311.63,88.14 L 307.18,86.98 L 302.75,85.90 L 298.33,84.91 L 293.91,84.03 L 289.51,83.25 L 285.10,82.57 L 280.71,82.01 L 276.32,81.56 L 271.94,81.22 L 267.57,81.00 L 263.21,80.89 L 258.86,80.89 L 254.53,81.02 L 250.22,81.25 L 245.93,81.60 L 241.65,82.07 L 237.41,82.65 L 233.18,83.35 L 228.98,84.16 L 224.82,85.09 L 220.68,86.12 L 216.57,87.27 L 212.51,88.53 L 208.47,89.90 L 204.48,91.38 L 200.53,92.97 L 196.63,94.66 L 192.76,96.46 L 188.95,98.37 L 185.18,100.37 L 181.47,102.48 L 177.81,104.69 L 174.20,107.00 L 170.65,109.41 L 167.16,111.91 L 163.73,114.51 L 160.36,117.19 L 157.05,119.97 L 153.81,122.84 L 150.64,125.80 L 147.53,128.84 L 144.49,131.96 L 141.53,135.16 L 138.64,138.45 L 135.82,141.81 L 133.08,145.25 L 130.41,148.76 L 127.82,152.34 L 125.31,155.99 L 122.89,159.70 L 120.54,163.49 L 118.28,167.33 L 116.10,171.23 L 114.00,175.19 L 111.99,179.21 L 110.07,183.28 L 108.24,187.40 L 106.50,191.57 L 104.84,195.78 L 103.28,200.04 L 101.80,204.34 L 100.42,208.67 L 99.13,213.04 L 97.94,217.45 L 96.83,221.89 L 95.82,226.35 L 94.91,230.84 L 94.09,235.36 L 93.37,239.89 L 92.74,244.44 L 92.21,249.01 L 91.77,253.60 L 91.44,258.19 L 91.19,262.79 L 91.05,267.39 L 91.00,272.00 L 91.05,276.61 L 91.19,281.21 L 91.44,285.81 L 91.77,290.40 L 92.21,294.99 L 92.74,299.56 L 93.37,304.11 L 94.09,308.64 L 94.91,313.16 L 95.82,317.65 L 96.83,322.11 L 97.94,326.55 L 99.13,330.96 L 100.42,335.33 L 101.80,339.66 L 103.28,343.96 L 104.84,348.22 L 106.50,352.43 L 108.24,356.60 L 110.07,360.72 L 111.99,364.79 L 114.00,368.81 L 116.10,372.77 L 118.28,376.67 L 120.54,380.51 L 122.89,384.30 L 125.31,388.01 L 127.82,391.66 L 130.41,395.24 L 133.08,398.75 L 135.82,402.19 L 138.64,405.55 L 141.53,408.84 L 144.49,412.04 L 147.53,415.16 L 150.64,418.20 L 153.81,421.16 L 157.05,424.03 L 160.36,426.81 L 163.73,429.49 L 167.16,432.09 L 170.65,434.59 L 174.20,437.00 L 177.81,439.31 L 181.47,441.52 L 185.18,443.63 L 188.95,445.63 L 192.76,447.54 L 196.63,449.34 L 200.53,451.03 L 204.48,452.62 L 208.47,454.10 L 212.51,455.47 L 216.57,456.73 L 220.68,457.88 L 224.82,458.91 L 228.98,459.84 L 233.18,460.65 L 237.41,461.35 L 241.65,461.93 L 245.93,462.40 L 250.22,462.75 L 254.53,462.98 L 258.86,463.11 L 263.21,463.11 L 267.57,463.00 L 271.94,462.78 L 276.32,462.44 L 280.71,461.99 L 285.10,461.43 L 289.51,460.75 L 293.91,459.97 L 298.33,459.09 L 302.75,458.10 L 307.18,457.02 L 311.63,455.86 L 316.10,454.64 L 320.61,453.38 L 325.21,452.16 L 330.27,451.68 Z"/>
    <path d="M 207.50,96.00 L 207.50,470.00 L 220.50,470.00 L 220.50,96.00 Z M 197.34,107.19 L 311.34,403.19 L 348.66,388.81 L 234.66,92.81 Z M 344.57,392.02 L 472.57,102.02 L 463.43,97.98 L 335.43,387.98 Z M 456.50,96.00 L 456.50,470.00 L 483.50,470.00 L 483.50,96.00 Z M 184.00,460.00 L 244.00,460.00 L 249.40,471.00 L 178.60,471.00 Z M 436.00,460.00 L 504.00,460.00 L 508.76,471.00 L 431.24,471.00 Z M 188.00,96.00 L 240.00,96.00 L 234.28,105.00 L 193.72,105.00 Z M 446.00,96.00 L 494.00,96.00 L 488.72,105.00 L 451.28,105.00 Z"/>
  </clipPath>
  <g clip-path="url(#cmClip)">
    <ellipse cx="200" cy="150" rx="230" ry="120" fill="#FFF6DC" opacity="0.30" filter="url(#cmSheen)"/>
    <ellipse cx="470" cy="430" rx="180" ry="110" fill="#FFF0C8" opacity="0.20" filter="url(#cmSheen)"/>
    <ellipse cx="330" cy="300" rx="300" ry="46" fill="#3A2708" opacity="0.30" filter="url(#cmSheen)"/>
  </g>
</svg>