<svg xmlns="http://www.w3.org/2000/svg" viewBox="0 0 760 500" width="760" height="500" role="img" aria-label="An infinity pool at dusk beside a lit glass pavilion looking out to the ocean">
  <defs>
    <linearGradient id="p2sky" x1="0" y1="0" x2="0" y2="1">
      <stop offset="0%" stop-color="#0A1730"/>
      <stop offset="52%" stop-color="#2E4460"/>
      <stop offset="78%" stop-color="#8A6A4A"/>
      <stop offset="100%" stop-color="#C89257"/>
    </linearGradient>
    <linearGradient id="p2sea" x1="0" y1="0" x2="0" y2="1">
      <stop offset="0%" stop-color="#2C3E52"/>
      <stop offset="100%" stop-color="#16273A"/>
    </linearGradient>
    <linearGradient id="p2pool" x1="0" y1="0" x2="0" y2="1">
      <stop offset="0%" stop-color="#31536F"/>
      <stop offset="100%" stop-color="#0E2237"/>
    </linearGradient>
    <linearGradient id="p2glass" x1="0" y1="0" x2="0" y2="1">
      <stop offset="0%" stop-color="#F3D093" stop-opacity="0.92"/>
      <stop offset="100%" stop-color="#8A5C28" stop-opacity="0.7"/>
    </linearGradient>
    <linearGradient id="p2vig" x1="0" y1="0" x2="0" y2="1">
      <stop offset="0%" stop-color="#05080E" stop-opacity="0.5"/>
      <stop offset="42%" stop-color="#05080E" stop-opacity="0"/>
      <stop offset="100%" stop-color="#05080E" stop-opacity="0.8"/>
    </linearGradient>
    
  <filter id="p2b" x="-60%" y="-60%" width="220%" height="220%">
    <feGaussianBlur stdDeviation="12"/>
  </filter>
    
  <filter id="p2g" x="0%" y="0%" width="100%" height="100%">
    <feTurbulence type="fractalNoise" baseFrequency="0.9" numOctaves="3" stitchTiles="stitch" result="n"/>
    <feColorMatrix type="saturate" values="0" in="n" result="g"/>
    <feComponentTransfer in="g">
      <feFuncA type="linear" slope="0.06"/>
    </feComponentTransfer>
  </filter>
  </defs>
  <rect width="760" height="500" fill="url(#p2sky)"/>
  <rect y="252" width="760" height="60" fill="url(#p2sea)"/>
  <rect y="250" width="760" height="3" fill="#E0B172" opacity="0.5"/>
  <g opacity="0.35" filter="url(#p2b)">
    <ellipse cx="600" cy="256" rx="180" ry="26" fill="#E8B478"/>
  </g>

  <!-- headland -->
  <path d="M0,258 C90,236 180,244 250,258 L250,300 L0,300 Z" fill="#0C1626"/>

  <!-- pavilion, left -->
  <g>
    <polygon points="20,150 300,138 300,170 20,182" fill="#111C2A"/>
    <rect x="34" y="176" width="252" height="88" fill="url(#p2glass)"/>
    <rect x="34" y="176" width="252" height="88" fill="#122033" opacity="0.16"/>
    <g stroke="#0B1420" stroke-width="3">
      <line x1="96" y1="176" x2="96" y2="264"/>
      <line x1="160" y1="176" x2="160" y2="264"/>
      <line x1="224" y1="176" x2="224" y2="264"/>
    </g>
    <rect x="20" y="262" width="280" height="10" fill="#080F19"/>
  </g>

  <!-- deck & pool -->
  <rect y="300" width="760" height="200" fill="#1A1E22"/>
  <path d="M110,318 L700,318 L760,470 L60,470 Z" fill="url(#p2pool)"/>
  <path d="M110,318 L700,318 L706,326 L106,326 Z" fill="#7FA9C4" opacity="0.5"/>
  <g opacity="0.5" filter="url(#p2b)">
    <rect x="150" y="330" width="70" height="130" fill="#F0C88C" opacity="0.35"/>
    <rect x="420" y="330" width="90" height="130" fill="#F0C88C" opacity="0.25"/>
  </g>
  <g stroke="#9FC3D8" stroke-width="1.4" opacity="0.30">
    <path d="M140,352 C260,344 420,360 640,350" fill="none"/>
    <path d="M120,392 C280,384 460,400 690,388" fill="none"/>
    <path d="M96,436 C300,426 500,444 730,430" fill="none"/>
  </g>
  <g fill="#0E1116">
    <rect x="596" y="286" width="10" height="40"/>
    <ellipse cx="601" cy="278" rx="34" ry="12"/>
    <rect x="660" y="290" width="8" height="36"/>
    <ellipse cx="664" cy="282" rx="28" ry="10"/>
  </g>
  <rect width="760" height="500" fill="url(#p2vig)"/>
  <rect width="760" height="500" filter="url(#p2g)" opacity="0.5" style="mix-blend-mode:overlay"/>
</svg>
